# Blender v2.93.6 OBJ File: 'TreasureChest_02.blend'
# www.blender.org
mtllib ChestBase.mtl
o TreasureChest_Base_Cube.001
v -0.999999 -1.000000 1.000001
v -0.999999 0.000000 1.000001
v -1.000001 -1.000000 -0.999999
v -1.000001 0.000000 -0.999999
v 1.000001 -1.000000 0.999999
v 1.000001 0.000000 0.999999
v 0.999999 -1.000000 -1.000001
v 0.999999 0.000000 -1.000001
v -0.999999 -0.824118 0.824118
v -0.999999 -0.175882 0.824118
v -1.000000 -0.175882 -0.824117
v -1.000000 -0.824118 -0.824117
v -0.824118 -0.824118 -0.999999
v -0.824118 -0.175882 -0.999999
v 0.824117 -0.175882 -1.000000
v 0.824117 -0.824118 -1.000000
v 0.999999 -0.824118 -0.824118
v 0.999999 -0.175882 -0.824118
v 1.000000 -0.175882 0.824117
v 1.000000 -0.824118 0.824117
v 0.824118 -0.824118 0.999999
v 0.824118 -0.175882 0.999999
v -0.824117 -0.175882 1.000000
v -0.824117 -0.824118 1.000000
v -0.898577 -0.175882 0.824118
v -0.898578 -0.175882 -0.824117
v -0.824118 -0.175882 -0.898577
v 0.824117 -0.175882 -0.898578
v 0.898577 -0.175882 -0.824118
v 0.898578 -0.175882 0.824117
v 0.824118 -0.175882 0.898577
v -0.824117 -0.175882 0.898578
v -0.898577 -0.824118 0.824118
v -0.898578 -0.824118 -0.824117
v -0.824118 -0.824118 -0.898577
v 0.824117 -0.824118 -0.898578
v 0.898577 -0.824118 -0.824118
v 0.898578 -0.824118 0.824117
v 0.824118 -0.824118 0.898577
v -0.824117 -0.824118 0.898578
v -0.884852 0.000000 0.884854
v -0.884854 0.000000 -0.884852
v 0.884854 0.000000 0.884852
v 0.884852 0.000000 -0.884854
v -0.884852 -0.861314 0.884854
v -0.884854 -0.861314 -0.884852
v 0.884854 -0.861314 0.884852
v 0.884852 -0.861314 -0.884854
v 0.492505 -0.824118 -0.935611
v -0.305921 -0.824118 -0.898578
v -0.237403 -0.824118 -0.898578
v -0.237403 -0.175882 -0.898578
v -0.305921 -0.175882 -0.898578
v 0.492505 -0.175882 -0.898578
v 0.410847 -0.175882 -0.898578
v 0.410847 -0.824118 -0.898578
v 0.492505 -0.824118 -0.898578
v 0.410847 -0.824118 -0.935611
v 0.410847 -0.175882 -0.935611
v 0.492505 -0.175882 -0.935611
v -0.305921 -0.175882 -0.929439
v -0.237403 -0.175882 -0.929439
v -0.237403 -0.824118 -0.929439
v -0.305921 -0.824118 -0.929439
v -0.937542 -0.824118 0.455231
v -0.937542 -0.824118 0.368888
v -0.937542 -0.175882 0.368888
v -0.937542 -0.175882 0.455231
v -0.898578 -0.824118 0.455231
v -0.898578 -0.824118 0.368888
v -0.898578 -0.175882 0.368888
v -0.898578 -0.175882 0.455231
v -0.898578 -0.175882 -0.455230
v -0.898578 -0.175882 -0.368887
v -0.898578 -0.824118 -0.368887
v -0.898578 -0.824118 -0.455230
v -0.937542 -0.824118 -0.455230
v -0.937542 -0.824118 -0.368887
v -0.937542 -0.175882 -0.368887
v -0.937542 -0.175882 -0.455230
v -0.454277 -0.175882 0.948264
v -0.369840 -0.175882 0.948264
v -0.369840 -0.824118 0.948264
v -0.454277 -0.824118 0.948264
v -0.454277 -0.175882 0.898578
v -0.369840 -0.175882 0.898578
v -0.369840 -0.824118 0.898578
v -0.454277 -0.824118 0.898578
v 0.454278 -0.824118 0.898578
v 0.369841 -0.824118 0.898578
v 0.369841 -0.175882 0.898578
v 0.454278 -0.175882 0.898578
v 0.454278 -0.175882 0.948263
v 0.369841 -0.175882 0.948263
v 0.369841 -0.824118 0.948263
v 0.454278 -0.824118 0.948263
v 0.931313 -0.175882 0.460679
v 0.931313 -0.175882 0.363438
v 0.931313 -0.824118 0.363438
v 0.931313 -0.824118 0.460679
v 0.898578 -0.175882 0.460679
v 0.898578 -0.175882 0.363438
v 0.898578 -0.824118 0.363438
v 0.898578 -0.824118 0.460679
v 0.898577 -0.824118 -0.460680
v 0.898578 -0.824118 -0.363439
v 0.898578 -0.175882 -0.363439
v 0.898577 -0.175882 -0.460680
v 0.931312 -0.175882 -0.460680
v 0.931312 -0.175882 -0.363439
v 0.931312 -0.824118 -0.363439
v 0.931312 -0.824118 -0.460680
v 0.125465 -0.136955 1.000000
v 0.125465 -0.013622 1.000000
v 0.125465 -0.136955 1.077886
v 0.125465 -0.013622 1.077886
v -0.125464 -0.136955 1.000000
v -0.125464 -0.013622 1.000000
v -0.125464 -0.136955 1.077886
v -0.125464 -0.013622 1.077886
vt 0.418971 0.921230
vt 0.581029 0.921230
vt 0.581029 0.921230
vt 0.418971 0.921230
vt 0.418971 0.171111
vt 0.581029 0.171111
vt 0.581029 0.171111
vt 0.418971 0.171111
vt 0.581029 0.319360
vt 0.418971 0.319360
vt 0.418971 0.313827
vt 0.581029 0.313827
vt 0.581029 0.579570
vt 0.418971 0.579570
vt 0.418971 0.567415
vt 0.581029 0.567415
vt 0.581029 0.828770
vt 0.418971 0.828770
vt 0.418971 0.818215
vt 0.581029 0.818215
vt 0.418971 0.371703
vt 0.581029 0.371703
vt 0.581029 0.371703
vt 0.418971 0.371703
vt 0.418971 0.386293
vt 0.581029 0.386293
vt 0.581029 0.313827
vt 0.418971 0.313827
vt 0.581029 0.319360
vt 0.418971 0.319360
vt 0.581029 0.386293
vt 0.418971 0.386293
vt 0.581029 0.181904
vt 0.418971 0.181904
vt 0.581029 0.078889
vt 0.418971 0.078889
vt 0.418971 0.068096
vt 0.581029 0.068096
vt 0.418971 0.181904
vt 0.581029 0.181904
vt 0.581029 0.068096
vt 0.418971 0.068096
vt 0.581029 0.078889
vt 0.418971 0.078889
vt 0.418971 0.931785
vt 0.418971 0.931785
vt 0.581029 0.931785
vt 0.581029 0.931785
vt 0.581029 0.828770
vt 0.418971 0.828770
vt 0.418971 0.818215
vt 0.581029 0.818215
vt 0.418971 0.682585
vt 0.418971 0.682585
vt 0.581029 0.682585
vt 0.581029 0.682585
vt 0.418971 0.670430
vt 0.581029 0.670430
vt 0.581029 0.670430
vt 0.418971 0.670430
vt 0.418971 0.567415
vt 0.581029 0.567415
vt 0.581029 0.579570
vt 0.418971 0.579570
vt 0.375000 0.000000
vt 0.625000 0.000000
vt 0.625000 0.250000
vt 0.375000 0.250000
vt 0.625000 0.500000
vt 0.375000 0.500000
vt 0.625000 0.750000
vt 0.375000 0.750000
vt 0.125000 0.500000
vt 0.125000 0.750000
vt 0.875000 0.500000
vt 0.875000 0.750000
vt 0.418971 0.021985
vt 0.581029 0.021985
vt 0.581029 0.021985
vt 0.418971 0.021985
vt 0.581029 0.978015
vt 0.418971 0.978015
vt 0.418971 0.978015
vt 0.581029 0.978015
vt 0.125000 0.500000
vt 0.375000 0.500000
vt 0.375000 0.750000
vt 0.125000 0.750000
vt 0.375000 0.000000
vt 0.625000 0.000000
vt 0.625000 0.250000
vt 0.581029 0.228015
vt 0.375000 0.250000
vt 0.418971 0.228015
vt 0.581029 0.271985
vt 0.418971 0.271985
vt 0.625000 0.500000
vt 0.581029 0.478015
vt 0.418971 0.478015
vt 0.581029 0.521985
vt 0.418971 0.521985
vt 0.625000 0.750000
vt 0.581029 0.728015
vt 0.418971 0.728015
vt 0.581029 0.771985
vt 0.418971 0.771985
vt 0.625000 1.000000
vt 0.375000 1.000000
vt 0.581029 0.478015
vt 0.418971 0.478015
vt 0.581029 0.771985
vt 0.581029 0.271985
vt 0.418971 0.271985
vt 0.581029 0.521985
vt 0.418971 0.521985
vt 0.418971 0.771985
vt 0.418971 0.228015
vt 0.581029 0.228015
vt 0.418971 0.728015
vt 0.581029 0.728015
vt 0.625000 0.250000
vt 0.625000 0.500000
vt 0.625000 0.750000
vt 0.625000 1.000000
vt 0.625000 0.000000
vt 0.625000 0.500000
vt 0.625000 0.750000
vt 0.625000 0.000000
vt 0.625000 0.250000
vt 0.625000 1.000000
vn 1.0000 0.0000 0.0000
vn 0.0000 0.0000 1.0000
vn -0.0000 0.0000 -1.0000
vn -1.0000 0.0000 0.0000
vn 0.0000 -1.0000 0.0000
vn 0.0000 1.0000 0.0000
usemtl MAT_Metal
s off
f 87/1/1 86/2/1 82/3/1 83/4/1
f 75/5/2 74/6/2 79/7/2 78/8/2
f 62/9/3 63/10/3 64/11/3 61/12/3
f 110/13/1 111/14/1 112/15/1 109/16/1
f 94/17/2 95/18/2 96/19/2 93/20/2
f 56/21/4 55/22/4 59/23/4 58/24/4
f 49/25/3 58/24/3 59/23/3 60/26/3
f 53/27/4 61/12/4 64/11/4 50/28/4
f 52/29/1 51/30/1 63/10/1 62/9/1
f 54/31/1 57/32/1 49/25/1 60/26/1
f 80/33/4 77/34/4 78/8/4 79/7/4
f 67/35/4 66/36/4 65/37/4 68/38/4
f 76/39/3 77/34/3 80/33/3 73/40/3
f 72/41/2 68/38/2 65/37/2 69/42/2
f 71/43/3 70/44/3 66/36/3 67/35/3
f 88/45/4 84/46/4 81/47/4 85/48/4
f 91/49/4 90/50/4 95/18/4 94/17/4
f 89/51/1 92/52/1 93/20/1 96/19/1
f 81/47/2 84/46/2 83/4/2 82/3/2
f 104/53/2 100/54/2 97/55/2 101/56/2
f 103/57/3 102/58/3 98/59/3 99/60/3
f 105/61/3 108/62/3 109/16/3 112/15/3
f 107/63/2 106/64/2 111/14/2 110/13/2
f 97/55/1 100/54/1 99/60/1 98/59/1
f 113/65/1 114/66/1 116/67/1 115/68/1
f 115/68/2 116/67/2 120/69/2 119/70/2
f 119/70/4 120/69/4 118/71/4 117/72/4
f 115/73/5 119/70/5 117/72/5 113/74/5
f 120/69/6 116/75/6 114/76/6 118/71/6
usemtl MAT_Wood
f 9/77/3 10/78/3 25/79/3 33/80/3
f 70/44/4 71/43/4 74/6/4 75/5/4
f 23/81/1 24/82/1 40/83/1 32/84/1
f 3/85/5 7/86/5 5/87/5 1/88/5
f 1/89/4 2/90/4 10/78/4 9/77/4
f 2/90/4 4/91/4 11/92/4 10/78/4
f 4/91/4 3/93/4 12/94/4 11/92/4
f 3/93/4 1/89/4 9/77/4 12/94/4
f 3/93/3 4/91/3 14/95/3 13/96/3
f 4/91/3 8/97/3 15/98/3 14/95/3
f 8/97/3 7/86/3 16/99/3 15/98/3
f 7/86/3 3/93/3 13/96/3 16/99/3
f 7/86/1 8/97/1 18/100/1 17/101/1
f 8/97/1 6/102/1 19/103/1 18/100/1
f 6/102/1 5/87/1 20/104/1 19/103/1
f 5/87/1 7/86/1 17/101/1 20/104/1
f 5/87/2 6/102/2 22/105/2 21/106/2
f 6/102/2 2/107/2 23/81/2 22/105/2
f 2/107/2 1/108/2 24/82/2 23/81/2
f 1/108/2 5/87/2 21/106/2 24/82/2
f 57/32/3 54/31/3 28/109/3 36/110/3
f 22/105/5 23/81/5 32/84/5 85/48/5 86/2/5 91/49/5 92/52/5 31/111/5
f 52/29/3 55/22/3 56/21/3 51/30/3
f 13/96/1 14/95/1 27/112/1 35/113/1
f 17/101/2 18/100/2 29/114/2 37/115/2
f 21/106/4 22/105/4 31/111/4 39/116/4
f 11/92/2 12/94/2 34/117/2 26/118/2
f 15/98/4 16/99/4 36/110/4 28/109/4
f 19/103/3 20/104/3 38/119/3 30/120/3
f 37/115/1 29/114/1 108/62/1 105/61/1
f 8/97/6 4/91/6 42/121/6 44/122/6
f 2/107/6 6/102/6 43/123/6 41/124/6
f 4/91/6 2/90/6 41/125/6 42/121/6
f 6/102/6 8/97/6 44/122/6 43/123/6
f 43/123/4 44/122/4 48/126/4 47/127/4
f 42/121/1 41/125/1 45/128/1 46/129/1
f 41/124/3 43/123/3 47/127/3 45/130/3
f 44/122/2 42/121/2 46/129/2 48/126/2
f 16/99/6 13/96/6 35/113/6 50/28/6 51/30/6 56/21/6 57/32/6 36/110/6
f 51/30/5 50/28/5 64/11/5 63/10/5
f 53/27/6 52/29/6 62/9/6 61/12/6
f 14/95/5 15/98/5 28/109/5 54/31/5 55/22/5 52/29/5 53/27/5 27/112/5
f 55/22/6 54/31/6 60/26/6 59/23/6
f 57/32/5 56/21/5 58/24/5 49/25/5
f 12/94/6 9/77/6 33/80/6 69/42/6 70/44/6 75/5/6 76/39/6 34/117/6
f 10/78/5 11/92/5 26/118/5 73/40/5 74/6/5 71/43/5 72/41/5 25/79/5
f 72/41/6 71/43/6 67/35/6 68/38/6
f 35/113/3 27/112/3 53/27/3 50/28/3
f 76/39/4 73/40/4 26/118/4 34/117/4
f 74/6/6 73/40/6 80/33/6 79/7/6
f 70/44/5 69/42/5 65/37/5 66/36/5
f 76/39/5 75/5/5 78/8/5 77/34/5
f 88/45/2 85/48/2 32/84/2 40/83/2
f 24/82/6 21/106/6 39/116/6 89/51/6 90/50/6 87/1/6 88/45/6 40/83/6
f 25/79/4 72/41/4 69/42/4 33/80/4
f 86/2/6 85/48/6 81/47/6 82/3/6
f 92/52/6 91/49/6 94/17/6 93/20/6
f 90/50/5 89/51/5 96/19/5 95/18/5
f 88/45/5 87/1/5 83/4/5 84/46/5
f 91/49/2 86/2/2 87/1/2 90/50/2
f 20/104/6 17/101/6 37/115/6 105/61/6 106/64/6 103/57/6 104/53/6 38/119/6
f 104/53/1 101/56/1 30/120/1 38/119/1
f 102/58/6 101/56/6 97/55/6 98/59/6
f 18/100/5 19/103/5 30/120/5 101/56/5 102/58/5 107/63/5 108/62/5 29/114/5
f 106/64/5 105/61/5 112/15/5 111/14/5
f 104/53/5 103/57/5 99/60/5 100/54/5
f 107/63/1 102/58/1 103/57/1 106/64/1
f 108/62/6 107/63/6 110/13/6 109/16/6
f 39/116/2 31/111/2 92/52/2 89/51/2
